<?xml version="1.0" encoding="utf-8"?>
<!-- Svg Vector Icons : http://www.onlinewebfonts.com/icon -->
<!DOCTYPE svg PUBLIC "-//W3C//DTD SVG 1.1//EN" "http://www.w3.org/Graphics/SVG/1.1/DTD/svg11.dtd">
<svg version="1.1" xmlns="http://www.w3.org/2000/svg" xmlns:xlink="http://www.w3.org/1999/xlink" x="0px" y="0px" viewBox="0 0 1000 1000" enable-background="new 0 0 1000 1000" xml:space="preserve">
<metadata> Svg Vector Icons : http://www.onlinewebfonts.com/icon </metadata>
<g><g><g><path d="M500,990c-68.4,0-131.3-40.2-160.9-101.3c-19.1,6.8-39,10.2-59.2,10.2c-47.7,0-92.6-18.6-126.3-52.3c-48.4-48.4-64.4-121.3-42-185.5C50.3,631.4,10,568.5,10,500c0-68.5,40.2-131.4,101.5-160.9c-22.4-64.2-6.4-137.2,42-185.5c33.7-33.7,78.6-52.3,126.3-52.3c20.3,0,40.2,3.4,59.3,10.2C368.7,50.2,431.6,10,500,10c68.4,0,131.3,40.2,160.9,101.3c19.1-6.8,39-10.2,59.3-10.2c47.7,0,92.6,18.6,126.4,52.4c48.4,48.4,64.4,121.3,42,185.5C949.8,368.6,990,431.5,990,500c0,68.5-40.3,131.4-101.5,160.9c22.4,64.2,6.4,137.1-42,185.6c-33.7,33.7-78.6,52.3-126.3,52.3c-20.3,0-40.2-3.4-59.3-10.2C631.3,949.8,568.4,990,500,990z M355,850.3l5.5,14.3c22.1,57.5,78.1,96.2,139.5,96.2c61.4,0,117.4-38.7,139.5-96.2l5.5-14.4l14.1,6.3c19.4,8.7,39.9,13.1,61,13.1c39.9,0,77.5-15.6,105.7-43.8c43.4-43.4,55.7-110.5,30.6-166.8l-6.3-14l14.4-5.5c57.6-22.1,96.3-78.2,96.4-139.6c0-61.4-38.7-117.4-96.3-139.5l-14.4-5.5l6.3-14c25.1-56.3,12.8-123.4-30.6-166.8c-28.2-28.3-65.8-43.8-105.8-43.8c-21.1,0-41.6,4.4-61.1,13.1l-14,6.3l-5.5-14.4C617.4,77.8,561.3,39.2,500,39.2c-61.4,0-117.4,38.7-139.5,96.2l-5.5,14.4l-14-6.3c-19.4-8.7-40-13.1-61.1-13.1c-39.9,0-77.5,15.6-105.7,43.8c-43.4,43.4-55.7,110.4-30.6,166.8l6.3,14l-14.3,5.5C77.8,382.5,39.1,438.6,39.1,500c0,61.4,38.7,117.5,96.3,139.6l14.3,5.5l-6.3,14c-25.1,56.3-12.8,123.3,30.6,166.8c28.2,28.2,65.8,43.8,105.7,43.8c21,0,41.6-4.4,61.1-13.1L355,850.3z M500,912.4c-52.2,0-96.3-41-100.3-93.3l-0.5-6.7l85-84.9c1.2-1.2,2.2-2.4,3.3-3.7l12.5-14.1l12.9,14.3c1,1.2,2.1,2.4,3.2,3.5l84.9,84.9l-0.5,6.7C596.3,871.3,552.2,912.4,500,912.4z M429.5,823.2c5.8,34.1,35.6,60,70.5,60c35,0,64.8-25.9,70.5-60L500,752.7L429.5,823.2z M720.7,820.1c-24.5,0-47.9-8.4-66-23.6l-5.2-4.4V672.1c0-1.5-0.1-3.1-0.2-4.6l-1-19.2l18.8,1.1c1.6,0.1,3.3,0.2,5,0.2h120.1l4.4,5.1c34.1,39.9,31.9,100.1-5,136.9C773.2,810,748,820.1,720.7,820.1z M678.7,778.2c12,8.3,26.6,12.7,42,12.7c19.2,0,37.6-7.3,50.3-20c24.7-24.7,27.5-64.1,7.4-92.3h-99.7L678.7,778.2L678.7,778.2z M279.4,820.1c-27.3,0-52.5-10.1-70.9-28.5c-36.9-36.9-39.1-97.1-5-137l4.4-5.1H328c1.5,0,3.1-0.1,4.6-0.2l19.2-1l-1,19c-0.1,1.6-0.2,3.2-0.2,4.8v120.1l-5.2,4.4C327.3,811.7,303.9,820.1,279.4,820.1z M221.6,678.7c-20,28.2-17.2,67.6,7.4,92.3c12.7,12.7,31,20,50.3,20c15.3,0,30-4.5,42-12.7v-99.6H221.6z M398.9,744v-71.9c0-15.4,3.7-30.6,11.1-45.1l1.6-3.2l2.9-2.1c12.7-9.1,24-20.2,33.4-32.9l34.6-46.6l-8.5,57.4c-2.3,15.6-2.2,31.4,0.4,46.9l0.6,3.5l-1.1,3.4c-5.1,15.5-13.2,28.8-24.1,39.7L398.9,744z M428.1,672.1v1.6l1.1-1.1c6.9-6.9,12.2-15.3,15.9-25.1c-0.6-3.9-1-7.8-1.3-11.8c-3,2.6-6.1,5-9.2,7.4C430.3,652.6,428.1,662.3,428.1,672.1L428.1,672.1z M601,744l-50.8-50.8c-10.9-10.9-19-24.3-24.1-39.7L525,650l0.6-3.5c2.6-15.5,2.7-31.3,0.4-46.9l-8.5-57.5l34.6,46.7c9.4,12.6,20.6,23.7,33.4,32.9l2.9,2.1l1.6,3.2c7.3,14.6,11.1,29.8,11.1,45.2L601,744L601,744z M554.9,647.5c3.7,9.8,9,18.2,15.9,25.1l1.1,1.1v-1.6c0-9.8-2.2-19.5-6.5-29c-3.1-2.3-6.2-4.8-9.2-7.3C555.9,639.6,555.5,643.6,554.9,647.5z M744,601.1h-71.9c-15.4,0-30.6-3.7-45.2-11.1l-3.2-1.6l-2.1-2.9c-9-12.6-20-23.8-32.6-33.2l-46.1-34.4l56.9,8.3c18.3,2.7,30.4,2.3,47-0.4l3.6-0.6l3.4,1.1c15.4,5.1,28.6,13.2,39.4,24L744,601.1z M643.1,565.4c9.5,4.3,19.3,6.5,29,6.5h1.5l-1.1-1.1c-6.9-6.8-15.2-12.2-24.8-15.8c-4,0.6-8,1.1-11.8,1.4C638.4,559.3,640.8,562.3,643.1,565.4z M327.9,601H256l50.8-50.9c10.8-10.8,24.1-18.9,39.4-24l3.5-1.2l3.6,0.6c16.2,2.7,28.8,3.1,46.9,0.4l57.1-8.5L411,552.2c-12.6,9.4-23.6,20.6-32.7,33.3l-2.1,2.9L373,590C358.5,597.3,343.4,601,327.9,601z M326.3,571.9h1.6c9.8,0,19.5-2.2,28.9-6.5c2.3-3.1,4.7-6.1,7.2-9c-3.9-0.3-7.8-0.8-11.9-1.4c-9.6,3.7-18,9-24.8,15.9L326.3,571.9z M187.7,600.9l-6.7-0.5c-52.3-4.1-93.3-48.2-93.3-100.4c0-52.2,41-96.3,93.3-100.4l6.7-0.5l85,84.9c1.1,1.1,2.3,2.2,3.5,3.2l14.1,12.7l-14.1,12.7c-1.2,1.1-2.4,2.1-3.5,3.2L187.7,600.9z M176.8,429.4c-34.1,5.8-60,35.6-60,70.5c0,34.9,25.9,64.8,60,70.5l70.5-70.5L176.8,429.4z M812.3,600.8L727.4,516c-1.1-1.1-2.3-2.1-3.5-3.2L709.8,500l14.1-12.7c1.2-1.1,2.4-2.1,3.6-3.3l85-84.9l6.7,0.5c52.3,4.1,93.2,48.2,93.2,100.4c0,52.2-41,96.3-93.3,100.4L812.3,600.8z M752.7,500l70.5,70.5c34.1-5.8,60-35.6,60-70.5c0-34.9-25.9-64.7-60-70.5L752.7,500z M490.6,522.8l-4.4-4.4c-0.5-0.6-1.1-1.2-1.6-1.8l-7.3-6.9v-6.3c0-0.9,0.1-1.9,0.1-2.8l-0.3-10.1l7.4-7c0.5-0.6,1.1-1.3,1.7-1.8l4.4-4.4l6.2,0.1c0.8,0,1.6,0.1,2.5,0.1c2.3-0.1,3.1-0.1,3.9-0.1l6.4-0.1l13.2,13.3l-0.2,10.3l0.2,8.5l-4.3,4.3c-0.6,0.6-1.3,1.2-2,1.8l-1,1c-0.6,0.6-1.1,1.2-1.7,1.8l-4.4,4.4l-6.2-0.1c-0.8,0-1.7-0.1-2.5-0.1l-0.7,0c-1.5,0.1-2.3,0.2-3.2,0.2L490.6,522.8z M542.7,482.3l46.3-34.5c12.6-9.4,23.6-20.6,32.7-33.3l2.1-2.9l3.2-1.6c14.6-7.3,29.8-11,45.2-11H744l-50.9,50.8c-11,10.9-24.8,19-41.2,24l-3.2,1l-3.3-0.5c-16.7-2.7-28.5-2.8-45.7-0.3L542.7,482.3z M635.8,443.6c3.5,0.3,7,0.7,10.7,1.2c10.4-3.6,19.1-8.8,26-15.7l1.1-1.1h-1.5c-9.8,0-19.5,2.2-29,6.5C640.8,437.7,638.3,440.7,635.8,443.6z M457.3,482.3l-57.1-8.4c-17.4-2.5-29-2.4-45.7,0.3l-3.3,0.5l-3.2-1c-16.4-4.9-30.2-13-41.2-24L256,398.9h71.9c15.4,0,30.5,3.7,45.1,11l3.2,1.6l2.1,2.9c9.1,12.7,20.1,23.9,32.7,33.4L457.3,482.3z M326.3,428l1.1,1.1c6.9,6.9,15.6,12.2,26,15.7c3.7-0.5,7.2-0.9,10.7-1.2c-2.5-3-5-6-7.3-9.1c-9.5-4.3-19.2-6.5-28.9-6.5L326.3,428L326.3,428L326.3,428z M517.5,457.8l8.5-57.4c2.3-15.7,2.2-31.4-0.4-46.8l-0.6-3.6l1.1-3.4c5.2-15.5,13.3-28.8,24.2-39.7L601,256v71.9c0,15.4-3.7,30.6-11.1,45.1l-1.6,3.2l-2.9,2.1c-12.7,9.1-23.9,20.1-33.4,32.8L517.5,457.8z M554.9,352.5c0.5,3.9,1,7.8,1.3,11.8c3-2.6,6.1-5,9.2-7.4c4.3-9.5,6.5-19.2,6.5-29v-1.5l-1,1C564,334.3,558.6,342.8,554.9,352.5z M482.3,457.4L447.8,411c-9.4-12.7-20.6-23.7-33.3-32.7l-2.9-2.1l-1.6-3.2c-7.3-14.6-11-29.7-11-45.1V256l50.8,50.9c10.9,10.9,19,24.2,24,39.6l1.1,3.4l-0.6,3.6c-1.5,8.9-2.2,17.1-2.2,24.9c0,6.6,0.6,13.7,1.8,21.9L482.3,457.4z M434.5,356.8c3.1,2.3,6.1,4.8,9.1,7.3c0.3-3.8,0.8-7.7,1.4-11.7c-3.7-9.7-9-18.1-15.9-25l-1.1-1.1v1.5C428.1,337.6,430.2,347.3,434.5,356.8z M648.2,351.8l1.1-18.9c0.1-1.6,0.2-3.3,0.2-4.9V207.8l5.1-4.4c18.5-15.9,41.8-24.6,65.5-24.6c27,0,52.4,10.5,71.5,29.6c36.9,36.9,39,97,5,136.9l-4.4,5.1l-120.2,0c-1.6,0-3.1,0.1-4.6,0.2L648.2,351.8z M678.7,221.5v99.8l99.8,0c20-28.2,17.2-67.6-7.4-92.3C746.8,204.8,706.8,201.2,678.7,221.5z M351.7,351.7l-18.9-1c-1.6-0.1-3.3-0.2-4.9-0.2H207.8l-4.4-5.1c-34.1-39.9-31.9-100,5-136.9c19.1-19.1,44.5-29.6,71.4-29.6c23.8,0,47,8.7,65.5,24.6l5.1,4.4v120.1c0,1.6,0.1,3.2,0.2,4.7L351.7,351.7z M221.6,321.3h99.8v-99.8c-28.1-20.3-68.2-16.7-92.3,7.5C204.3,253.7,201.5,293.1,221.6,321.3z M500,290.2L487.1,276c-1-1.2-2-2.3-3.1-3.4l-84.9-84.9l0.5-6.7c4-52.3,48.1-93.4,100.3-93.4c52.2,0,96.3,41,100.4,93.3l0.5,6.7l-84.9,85c-1.1,1.1-2.1,2.2-3.1,3.4L500,290.2z M429.5,176.8l70.5,70.5l70.5-70.6c-5.8-34.1-35.6-60-70.5-60C465,116.8,435.2,142.7,429.5,176.8z"/></g></g><g></g><g></g><g></g><g></g><g></g><g></g><g></g><g></g><g></g><g></g><g></g><g></g><g></g><g></g><g></g></g>
</svg>